<?xml version="1.0" encoding="UTF-8" standalone="no"?>
<!DOCTYPE svg PUBLIC "-//W3C//DTD SVG 1.1//EN" "http://www.w3.org/Graphics/SVG/1.1/DTD/svg11.dtd">
<svg width="100%" height="100%" viewBox="0 0 340 440" version="1.1" xmlns="http://www.w3.org/2000/svg" xmlns:xlink="http://www.w3.org/1999/xlink" xml:space="preserve" xmlns:serif="http://www.serif.com/" style="fill-rule:evenodd;clip-rule:evenodd;stroke-linecap:round;stroke-linejoin:round;stroke-miterlimit:1.5;">
    <g transform="matrix(1.04356,0,0,0.819991,-35.223,35.7122)">
        <g transform="matrix(3.16776,0,0,14.8725,-331.011,-3190.63)">
            <g id="Table">
                <path d="M218,242.135C218,241.508 216.125,241 213.815,241L119.334,241C117.024,241 115.149,241.508 115.149,242.135L115.149,244.404C115.149,245.03 117.024,245.538 119.334,245.538L213.815,245.538C216.125,245.538 218,245.03 218,244.404L218,242.135Z" style="fill:rgb(255,94,20);"/>
            </g>
        </g>
        <g id="Buddha" transform="matrix(3.62935,0,0,3.24483,-685.405,56.025)">
            <g transform="matrix(0.958258,0,0,1.21953,33.7527,-43.5519)">
                <path d="M188.027,109.392C187.459,109.175 187.156,108.486 187.348,107.851C189.114,102.022 197,76 197,76L212,70L207.957,117C207.957,117 192.236,110.999 188.027,109.392Z" style="fill:rgb(255,94,20);stroke:rgb(255,94,20);stroke-width:0.29px;"/>
            </g>
            <g transform="matrix(-0.958258,0,0,1.21953,450.595,-43.5519)">
                <path d="M187.965,109.369C187.432,109.165 187.146,108.517 187.327,107.919C189.052,102.229 197,76 197,76L212,70L207.957,117C207.957,117 192.082,110.94 187.965,109.369Z" style="fill:rgb(255,94,20);stroke:rgb(255,94,20);stroke-width:0.29px;"/>
            </g>
            <g transform="matrix(0.958258,0,0,1.21953,33.7527,-43.5519)">
                <path d="M223,70L212,70L208,117L227,117L223,70Z" style="fill:rgb(255,94,20);stroke:rgb(255,94,20);stroke-width:0.29px;"/>
            </g>
            <g transform="matrix(0.958258,0,0,1.21953,34.5886,-59.4058)">
                <path d="M196,117C196,117 177.193,128.025 169.87,132.318C169.461,132.557 169.236,133.063 169.311,133.573C169.386,134.082 169.745,134.48 170.201,134.56C180.761,136.408 214.049,142.234 218.034,142.932C218.294,142.977 218.558,142.979 218.818,142.937C222.71,142.309 254.487,137.181 264.789,135.518C265.258,135.443 265.631,135.042 265.719,134.521C265.806,134.001 265.587,133.476 265.175,133.216C257.975,128.668 239.5,117 239.5,117L196,117Z" style="fill:rgb(255,94,20);stroke:rgb(255,94,20);stroke-width:0.29px;"/>
            </g>
            <g transform="matrix(0.958258,0,0,1.21953,29.8484,-41.1129)">
                <ellipse cx="221.5" cy="49.5" rx="9.5" ry="14.5" style="fill:rgb(255,94,20);stroke:rgb(255,94,20);stroke-width:0.29px;"/>
            </g>
            <g transform="matrix(1.36894,0,0,1.74218,-61.7003,-60.2769)">
                <circle cx="221.926" cy="35.5" r="3.5" style="fill:rgb(255,94,20);stroke:rgb(255,94,20);stroke-width:0.2px;"/>
            </g>
            <g transform="matrix(0.504346,0,0,1.21953,129.545,-35.0153)">
                <path d="M223.176,15L227.926,30L218.426,30L223.176,15Z" style="fill:rgb(255,94,20);stroke:rgb(255,94,20);stroke-width:0.38px;"/>
            </g>
            <g transform="matrix(0.442549,0,0,1.21953,142.86,-42.4244)">
                <path d="M235.079,70L213.426,70L214.902,64L233.602,64L235.079,70Z" style="fill:rgb(255,94,20);stroke:rgb(255,94,20);stroke-width:0.39px;"/>
            </g>
        </g>
    </g>
</svg>
