<?xml version="1.0" encoding="UTF-8" standalone="no"?>
<!DOCTYPE svg PUBLIC "-//W3C//DTD SVG 1.1//EN" "http://www.w3.org/Graphics/SVG/1.1/DTD/svg11.dtd">
<svg width="100%" height="100%" viewBox="0 0 440 400" version="1.1" xmlns="http://www.w3.org/2000/svg" xmlns:xlink="http://www.w3.org/1999/xlink" xml:space="preserve" xmlns:serif="http://www.serif.com/" style="fill-rule:evenodd;clip-rule:evenodd;stroke-linejoin:round;stroke-miterlimit:2;">
    <g transform="matrix(0.740741,0,0,0.740741,67.8519,6.81481)">
        <circle cx="213.5" cy="155.5" r="67.5" style="fill:rgb(255,94,20);"/>
    </g>
    <path d="M18.154,341C17.314,336.588 16.875,332.033 16.875,327.375C16.875,287.292 49.417,254.75 89.5,254.75C97.012,254.75 104.258,255.893 111.076,258.014C107.935,268.717 106.25,280.039 106.25,291.75C106.25,309.302 110.034,325.976 116.83,341L18.154,341Z" style="fill:rgb(255,94,20);"/>
    <path d="M335.17,341C341.966,325.976 345.75,309.302 345.75,291.75C345.75,280.039 344.065,268.717 340.924,258.014C347.742,255.893 354.988,254.75 362.5,254.75C402.583,254.75 435.125,287.292 435.125,327.375C435.125,332.033 434.686,336.588 433.846,341L335.17,341Z" style="fill:rgb(255,94,20);"/>
    <path d="M129.593,341C122.023,326.224 117.75,309.482 117.75,291.75C117.75,232.005 166.255,183.5 226,183.5C285.745,183.5 334.25,232.005 334.25,291.75C334.25,309.482 329.977,326.224 322.407,341L129.593,341Z" style="fill:rgb(255,94,20);"/>
    <g transform="matrix(0.540741,0,0,0.540741,247.052,129.415)">
        <circle cx="213.5" cy="155.5" r="67.5" style="fill:rgb(255,94,20);"/>
    </g>
    <g transform="matrix(0.540741,0,0,0.540741,-25.9481,129.415)">
        <circle cx="213.5" cy="155.5" r="67.5" style="fill:rgb(255,94,20);"/>
    </g>
</svg>
