<?xml version="1.0" encoding="UTF-8" standalone="no"?>
<!DOCTYPE svg PUBLIC "-//W3C//DTD SVG 1.1//EN" "http://www.w3.org/Graphics/SVG/1.1/DTD/svg11.dtd">
<svg width="100%" height="100%" viewBox="0 0 240 560" version="1.1" xmlns="http://www.w3.org/2000/svg" xmlns:xlink="http://www.w3.org/1999/xlink" xml:space="preserve" xmlns:serif="http://www.serif.com/" style="fill-rule:evenodd;clip-rule:evenodd;stroke-linejoin:round;stroke-miterlimit:2;">
    <g transform="matrix(1.99878,-0.069799,0.069799,1.99878,10.308,46.1373)">
        <path d="M75.271,52.922C82.662,75.982 84.781,114.004 85.1,146.179C85.448,146.244 85.8,146.297 86.164,146.317C86.312,146.325 86.462,146.329 86.609,146.329C90.827,146.329 94.357,143.029 94.59,138.766C94.985,131.56 95.166,124.971 95.166,118.935C95.121,89.164 90.851,72.824 84.997,62.92C82.077,58.022 78.617,54.782 75.271,52.922Z" style="fill:rgb(255,94,20);fill-rule:nonzero;stroke:rgb(255,94,20);stroke-width:3px;"/>
    </g>
    <g transform="matrix(-1.99878,-0.069799,-0.069799,1.99878,229.086,46.1373)">
        <path d="M75.271,52.922C82.662,75.982 84.781,114.004 85.1,146.179C85.448,146.244 85.8,146.297 86.164,146.317C86.312,146.325 86.462,146.329 86.609,146.329C90.827,146.329 94.357,143.029 94.59,138.766C94.985,131.56 95.166,124.971 95.166,118.935C95.121,89.164 90.851,72.824 84.997,62.92C82.077,58.022 78.617,54.782 75.271,52.922Z" style="fill:rgb(255,94,20);fill-rule:nonzero;stroke:rgb(255,94,20);stroke-width:3px;"/>
    </g>
    <g transform="matrix(2,0,0,2,24.7781,42.819)">
        <path d="M20.542,224.818C20.542,231.648 26.079,237.181 32.905,237.181C39.733,237.181 45.27,231.648 45.27,224.818L45.27,207.623C37.034,207.462 27.357,206.353 20.541,205.426L20.541,224.818L20.542,224.818Z" style="fill:rgb(255,94,20);fill-rule:nonzero;stroke:rgb(255,94,20);stroke-width:0.5px;"/>
    </g>
    <g transform="matrix(2,0,0,2,24.7781,42.819)">
        <path d="M49.905,224.818C49.905,231.648 55.442,237.181 62.268,237.181C69.096,237.181 74.633,231.648 74.633,224.818L74.633,205.857C67.862,206.571 58.163,207.445 49.905,207.615L49.905,224.818Z" style="fill:rgb(255,94,20);fill-rule:nonzero;stroke:rgb(255,94,20);stroke-width:0.5px;"/>
    </g>
    <g transform="matrix(2,0,0,2,24.7781,42.819)">
        <circle cx="47.587" cy="22.5" r="22.5" style="fill:rgb(255,94,20);stroke:rgb(255,94,20);stroke-width:0.5px;"/>
    </g>
    <path d="M164.43,149.26L180.044,178.469L187.198,243.622L189.347,299.341L189.347,447.633C117.752,456.495 120.319,460.966 48.557,446.633L50.557,298.341L59.864,197.714L76.942,144.049L159.864,144.049C159.66,144.176 159.464,144.317 159.278,144.47C156.25,146.929 139.907,159.952 110.952,178.635C94.351,189.347 63.364,200.857 63.364,200.857L62.153,213.23C62.153,213.23 100.152,194.572 116.952,185.049C127.708,178.951 145.751,162.094 157.265,150.834C147.477,173.264 130.459,210.504 118.952,225.987C104.798,245.032 60,267 60,267L58,280C84.984,270.581 111.558,251.218 129.671,224.962C144.92,202.858 156.299,175.868 162.585,145.808L163.725,147.94C160.169,166.686 144.077,248.103 127.038,280C110.83,310.341 58.576,353.81 49.811,360.98C49.667,370.288 49.594,379.409 49.568,388.047C57.911,380.153 115.616,324.837 135,287C152.696,252.457 162.192,170.682 164.43,149.26Z" style="fill:rgb(255,94,20);"/>
</svg>
