<?xml version="1.0" standalone="no"?>
<!DOCTYPE svg PUBLIC "-//W3C//DTD SVG 20010904//EN"
 "http://www.w3.org/TR/2001/REC-SVG-20010904/DTD/svg10.dtd">
<svg version="1.0" xmlns="http://www.w3.org/2000/svg"
 width="1114.000000pt" height="1114.000000pt" viewBox="0 0 1114.000000 1114.000000"
 preserveAspectRatio="xMidYMid meet">
<metadata>
Created by potrace 1.14, written by Peter Selinger 2001-2017
</metadata>
<g transform="translate(0.000000,1114.000000) scale(0.100000,-0.100000)"
fill="#000000" stroke="none">
<path d="M5638 10735 c-2 -2 -55 -6 -118 -10 -63 -3 -128 -8 -145 -10 -16 -3
-68 -9 -115 -15 -47 -6 -101 -13 -120 -15 -34 -5 -228 -40 -280 -50 -14 -3
-37 -7 -52 -10 -23 -4 -111 -24 -178 -40 -56 -14 -266 -70 -375 -100 -71 -19
-138 -37 -148 -40 -110 -26 -512 -162 -622 -210 -16 -7 -75 -33 -130 -56 -240
-103 -517 -253 -745 -404 -110 -73 -360 -255 -395 -288 -7 -7 -35 -30 -61 -52
-262 -216 -539 -506 -761 -795 -100 -131 -272 -385 -328 -485 -7 -11 -38 -67
-71 -125 -201 -354 -387 -827 -486 -1235 -5 -22 -11 -47 -13 -55 -8 -33 -56
-275 -61 -309 -3 -20 -7 -47 -10 -61 -25 -151 -38 -274 -50 -495 -12 -208 -6
-581 11 -720 2 -16 6 -52 9 -80 13 -124 18 -163 26 -210 5 -27 12 -70 15 -95
10 -72 74 -366 106 -485 131 -482 370 -1010 645 -1424 27 -40 54 -81 59 -90
30 -49 290 -388 316 -411 3 -3 43 -48 90 -100 138 -155 321 -332 509 -493 161
-138 494 -370 705 -492 93 -54 467 -245 479 -245 3 0 29 -11 58 -24 177 -79
473 -180 716 -242 97 -25 188 -47 202 -49 14 -2 57 -10 96 -19 38 -8 92 -18
120 -21 27 -4 56 -8 64 -10 8 -2 38 -7 65 -10 28 -4 61 -8 75 -10 14 -3 56 -7
95 -11 38 -3 81 -7 95 -10 133 -21 648 -21 865 0 289 28 467 57 730 118 72 16
138 31 147 33 9 2 51 13 93 25 42 12 86 23 98 26 20 3 135 35 307 85 566 163
1022 369 1460 662 119 79 305 213 336 242 6 5 29 24 50 40 213 165 516 468
731 730 269 329 529 751 690 1120 12 28 33 75 46 105 118 267 259 749 312
1065 2 17 7 41 9 55 15 73 44 325 53 450 10 133 10 598 0 710 -4 47 -9 106
-11 132 -4 46 -14 130 -21 178 -8 55 -17 117 -21 145 -3 17 -7 41 -9 55 -13
99 -80 384 -130 557 -50 172 -143 428 -218 598 -45 103 -207 420 -255 499 -23
37 -42 70 -42 72 0 3 -9 17 -19 32 -10 15 -51 77 -91 137 -65 99 -166 242
-180 255 -3 3 -25 32 -50 65 -120 160 -359 421 -551 600 -45 42 -214 186 -283
242 -48 39 -288 212 -351 254 -97 64 -185 119 -190 119 -3 0 -29 15 -58 34
-67 43 -337 183 -442 228 -44 20 -100 45 -125 56 -216 97 -736 259 -930 288
-19 3 -42 7 -50 9 -30 8 -246 44 -305 50 -33 4 -71 8 -85 10 -24 4 -73 9 -205
21 -59 5 -592 13 -597 9z m-38 -140 c174 -8 215 -11 280 -18 25 -3 70 -9 100
-12 175 -18 472 -77 685 -134 984 -264 1883 -838 2530 -1616 28 -33 53 -62 56
-65 3 -3 57 -73 120 -157 116 -155 265 -381 333 -508 21 -38 42 -74 46 -80 9
-12 139 -272 168 -335 52 -116 67 -151 112 -269 122 -318 229 -711 265 -971 3
-25 8 -52 10 -60 2 -8 7 -35 10 -60 2 -25 7 -61 10 -80 2 -19 7 -64 10 -100 4
-36 8 -76 10 -90 13 -80 21 -462 14 -633 l-3 -88 -26 6 c-31 8 -196 44 -230
50 -14 2 -49 9 -79 15 -88 17 -299 46 -392 55 -125 12 -158 15 -254 21 -90 6
-475 7 -599 1 l-50 -2 -2 245 c-1 135 -4 281 -8 325 -22 263 -24 275 -57 490
-20 129 -72 371 -110 515 -32 121 -92 314 -100 324 -15 17 -429 -108 -709
-214 -89 -33 -109 -42 -203 -84 -32 -14 -60 -26 -63 -26 -13 0 -291 -139 -402
-201 -177 -99 -408 -250 -537 -351 -202 -158 -472 -420 -609 -593 -97 -122
-214 -294 -271 -398 l-37 -68 -69 116 c-146 244 -316 455 -549 681 -41 40 -91
86 -110 103 -19 16 -48 41 -65 56 -133 116 -468 346 -660 451 -49 27 -99 54
-110 60 -104 59 -540 254 -568 254 -7 0 -17 4 -23 9 -23 21 -626 210 -676 211
-4 0 -13 -19 -19 -42 -16 -53 -15 -50 -22 -68 -34 -85 -136 -492 -153 -615 -2
-16 -8 -52 -14 -80 -5 -27 -12 -68 -14 -90 -3 -22 -10 -76 -16 -120 -5 -44
-12 -107 -15 -140 -3 -33 -7 -80 -10 -105 -8 -81 -17 -332 -19 -490 l-1 -155
-40 2 c-103 6 -530 5 -615 -1 -152 -11 -299 -24 -340 -31 -14 -3 -45 -7 -70
-10 -25 -3 -74 -10 -110 -16 -36 -6 -78 -13 -95 -16 -59 -9 -221 -42 -283 -56
-34 -9 -62 -15 -62 -14 -15 47 -20 598 -7 757 10 133 17 211 22 240 2 14 7 50
10 80 4 30 9 64 11 74 2 11 6 42 9 69 3 28 8 53 10 56 2 4 6 27 10 51 4 25 13
77 22 115 8 39 16 79 19 90 4 23 45 182 68 265 110 403 324 877 589 1304 190
307 507 688 798 961 440 411 962 750 1494 968 276 113 364 141 540 172 50 8
99 17 111 19 12 2 45 7 75 11 30 3 61 8 69 10 8 2 51 7 95 10 44 4 96 9 115
11 19 2 114 6 210 10 96 4 176 7 177 8 3 2 61 0 263 -9z m-2110 -3820 c81 -21
195 -69 348 -147 669 -343 1174 -813 1472 -1371 29 -55 67 -135 85 -178 l32
-79 -28 -101 c-38 -133 -55 -214 -84 -389 -41 -249 -50 -375 -50 -691 l0 -236
-42 75 c-24 41 -43 76 -43 78 0 2 -30 53 -66 112 -197 318 -380 550 -611 774
-420 407 -900 651 -1550 787 -50 10 -96 21 -100 24 -22 14 -20 592 2 732 3 17
8 46 11 65 38 243 155 453 289 523 91 46 211 55 335 22z m4573 -23 c87 -40
151 -105 204 -207 96 -187 125 -372 124 -810 0 -322 3 -308 -79 -320 -75 -11
-313 -72 -433 -111 -588 -189 -1048 -509 -1443 -1003 -147 -185 -315 -440
-426 -648 -19 -35 -36 -63 -39 -63 -3 0 -6 114 -6 253 0 218 -8 403 -20 480
-2 12 -6 45 -10 72 -11 88 -16 118 -41 245 -14 69 -39 176 -55 239 -18 67 -28
123 -24 138 3 14 23 64 45 112 33 74 59 123 134 256 115 206 359 491 596 699
188 165 340 274 623 445 198 120 294 169 411 210 116 41 171 50 281 48 77 -2
99 -7 158 -35z m-5564 -1626 c13 -3 25 -7 26 -8 1 -2 12 -61 25 -133 51 -301
131 -545 266 -815 287 -573 766 -1063 1419 -1455 176 -106 515 -278 663 -337
26 -10 26 -11 -28 -30 -67 -23 -164 -44 -247 -52 -70 -7 -647 -8 -708 -2 -22
3 -69 8 -105 11 -104 11 -196 23 -220 30 -8 2 -31 7 -50 10 -149 24 -466 118
-595 175 -457 203 -719 397 -1039 770 -452 527 -727 1068 -710 1396 14 259
219 411 595 440 46 4 86 8 88 10 6 6 594 -4 620 -10z m6971 1 c14 -3 48 -8 75
-12 158 -21 301 -83 382 -166 222 -224 102 -706 -325 -1309 -266 -374 -593
-708 -874 -893 -382 -251 -784 -384 -1358 -452 -93 -11 -239 -17 -389 -17
-306 0 -537 25 -643 70 l-41 18 49 19 c77 29 332 150 467 223 834 446 1454
1109 1729 1847 70 187 111 349 145 565 l16 106 76 3 c42 1 78 4 80 7 6 5 580
-3 611 -9z m-6130 -198 c357 -95 756 -371 1143 -788 237 -256 435 -581 531
-872 79 -239 82 -317 15 -394 -76 -86 -255 -57 -529 86 -272 143 -584 372
-801 588 -183 184 -223 229 -333 376 -171 228 -266 414 -323 630 -33 126 -38
272 -10 322 44 81 138 97 307 52z m4798 6 c66 -27 77 -53 77 -175 0 -115 -16
-187 -71 -332 -185 -486 -577 -934 -1149 -1313 -367 -244 -661 -342 -772 -258
-80 59 -88 165 -26 348 163 478 462 908 873 1253 199 166 498 355 669 422 158
61 325 84 399 55z m1636 -1686 c-144 -268 -361 -595 -530 -798 -344 -412 -688
-725 -1109 -1005 -328 -219 -673 -397 -1010 -520 -55 -20 -107 -40 -115 -43
-18 -8 -13 -6 -80 -26 -51 -15 -146 -35 -194 -42 -12 -2 -55 -8 -96 -14 -96
-15 -128 -20 -192 -27 -29 -3 -69 -7 -88 -9 -268 -30 -836 -25 -1080 11 -19 3
-69 9 -110 14 -41 6 -100 14 -130 20 -30 5 -68 12 -85 15 -16 2 -39 7 -50 9
-11 3 -63 14 -115 25 -515 110 -1114 352 -1545 626 -231 147 -499 342 -620
452 -11 10 -58 52 -104 93 -133 118 -306 294 -431 440 -30 35 -60 68 -65 74
-19 20 -180 230 -220 286 -115 163 -115 161 1 49 60 -58 117 -112 127 -120 10
-8 28 -23 40 -35 62 -59 246 -195 370 -272 249 -157 550 -287 841 -366 93 -26
261 -64 306 -71 14 -2 84 -13 155 -23 72 -11 137 -20 145 -20 8 0 47 -4 85 -9
142 -16 758 -8 930 12 17 2 59 7 95 11 36 3 72 8 81 9 9 2 40 6 70 10 30 3 90
13 134 21 44 8 102 17 130 20 27 4 53 8 56 10 4 2 24 6 45 10 22 3 84 16 139
28 99 22 101 22 170 4 98 -25 319 -72 395 -84 19 -2 58 -9 85 -14 28 -6 73
-13 100 -16 28 -3 61 -7 75 -9 14 -2 52 -7 85 -10 33 -4 75 -8 93 -10 200 -23
741 -23 857 0 11 2 45 7 75 10 54 5 211 30 260 40 14 3 39 8 55 11 93 16 410
108 480 138 17 7 68 28 115 46 208 81 502 250 710 408 228 174 480 431 655
669 33 44 61 80 62 79 2 -2 -22 -49 -53 -107z"/>
<path d="M5448 8637 c-79 -78 -160 -162 -179 -186 -19 -24 -39 -48 -44 -55
-37 -41 -152 -230 -198 -326 -130 -272 -180 -540 -154 -840 21 -248 118 -517
270 -748 113 -172 202 -274 378 -432 52 -47 96 -88 97 -92 2 -5 9 -8 17 -8 15
0 264 243 328 320 183 223 318 502 377 780 36 168 34 492 -4 617 -3 10 -7 29
-10 43 -22 129 -138 395 -237 542 -105 157 -314 383 -459 498 l-37 29 -145
-142z m203 -364 c202 -214 348 -516 377 -778 40 -363 -71 -706 -332 -1024
l-61 -74 -62 68 c-128 140 -234 312 -294 476 -145 398 -97 784 145 1159 60 92
162 219 177 220 3 0 26 -21 50 -47z"/>
</g>
</svg>
