<?xml version="1.0" encoding="UTF-8" standalone="no"?>
<!DOCTYPE svg PUBLIC "-//W3C//DTD SVG 1.1//EN" "http://www.w3.org/Graphics/SVG/1.1/DTD/svg11.dtd">
<svg width="100%" height="100%" viewBox="0 0 380 400" version="1.1" xmlns="http://www.w3.org/2000/svg" xmlns:xlink="http://www.w3.org/1999/xlink" xml:space="preserve" xmlns:serif="http://www.serif.com/" style="fill-rule:evenodd;clip-rule:evenodd;stroke-linejoin:round;stroke-miterlimit:2;">
    <path d="M109,106L109,364.749C109,375.925 99.926,384.999 88.75,384.999L48.25,384.999C37.074,384.999 28,375.925 28,364.749L28,74.251C28,63.075 37.074,54.001 48.25,54.001L88.75,54.001C99.926,54.001 109,63.075 109,74.251L109,106L28,106L28,129.001L109,129.001L109,106Z" style="fill:rgb(255,94,20);"/>
    <path d="M176,371.999C176,380.277 169.279,386.999 161,386.999L131,386.999C122.721,386.999 116,380.277 116,371.999L116,85L176,85L176,371.999ZM116,28.001C116,19.723 122.721,13.001 131,13.001L161,13.001C169.279,13.001 176,19.723 176,28.001L176,56L116,56L116,28.001Z" style="fill:rgb(255,94,20);"/>
    <path d="M244,371.999C244,380.277 237.279,386.999 229,386.999L199,386.999C190.721,386.999 184,380.277 184,371.999L184,118L244,118L244,371.999ZM184,69.001C184,60.723 190.721,54.001 199,54.001L229,54.001C237.279,54.001 244,60.723 244,69.001L244,97L184,97L184,69.001Z" style="fill:rgb(255,94,20);"/>
    <g transform="matrix(0.984808,-0.173648,0.173648,0.984808,-36.97,56.6232)">
        <path d="M341.873,365.249C341.873,376.149 333.024,384.999 322.123,384.999L282.623,384.999C271.723,384.999 262.873,376.149 262.873,365.249L262.873,193L341.873,193L341.873,365.249ZM262.873,157.751C262.873,146.851 271.723,138.001 282.623,138.001L322.123,138.001C333.024,138.001 341.873,146.851 341.873,157.751L341.873,172L262.873,172L262.873,157.751Z" style="fill:rgb(255,94,20);"/>
    </g>
    <rect x="321" y="280" width="11" height="7" style="fill:none;"/>
</svg>
