<?xml version="1.0" encoding="UTF-8" standalone="no"?>
<!DOCTYPE svg PUBLIC "-//W3C//DTD SVG 1.1//EN" "http://www.w3.org/Graphics/SVG/1.1/DTD/svg11.dtd">
<svg width="100%" height="100%" viewBox="0 0 340 440" version="1.1" xmlns="http://www.w3.org/2000/svg" xmlns:xlink="http://www.w3.org/1999/xlink" xml:space="preserve" xmlns:serif="http://www.serif.com/" style="fill-rule:evenodd;clip-rule:evenodd;stroke-linecap:round;stroke-linejoin:round;stroke-miterlimit:1.5;">
    <g transform="matrix(1.07937,0,0,1.07843,-7.55556,-7.54902)">
        <path d="M322,85.818C322,42.317 286.713,7 243.25,7L85.75,7C42.287,7 7,42.317 7,85.818L7,336.182C7,379.683 42.287,415 85.75,415L243.25,415C286.713,415 322,379.683 322,336.182L322,85.818Z" style="fill:rgb(255,94,20);"/>
    </g>
    <g transform="matrix(0.420973,0,0,0.395881,81.5442,68.0294)">
        <ellipse cx="201.5" cy="162" rx="35.5" ry="67" style="fill:none;stroke:white;stroke-width:78.31px;"/>
    </g>
    <g transform="matrix(0.745524,0,0,0.629753,23.3875,79.967)">
        <path d="M200,377C200,377 310.132,302.166 314,372C317.868,441.834 200,377 200,377Z" style="fill-opacity:0;stroke:white;stroke-width:46.37px;"/>
    </g>
    <g transform="matrix(0.714577,0,0,0.607695,29.5768,88.9825)">
        <path d="M74,373.298C75.291,450.786 200,377 200,377C200,377 72.709,295.811 74,373.298Z" style="fill:rgb(127,33,31);fill-opacity:0;stroke:white;stroke-width:48.24px;"/>
    </g>
    <g transform="matrix(0.629633,0,0,0.629753,44.0733,71.1504)">
        <path d="M164.5,199C164.5,199 171.218,311.451 124,300" style="fill-opacity:0;stroke:white;stroke-width:50.82px;"/>
    </g>
    <g transform="matrix(-0.629633,0,0,0.629753,293.096,71.1504)">
        <path d="M164.5,199C164.5,199 171.218,311.451 124,300" style="fill-opacity:0;stroke:white;stroke-width:50.82px;"/>
    </g>
</svg>
