<?xml version="1.0" encoding="utf-8"?>
<!-- Generator: Adobe Illustrator 25.2.3, SVG Export Plug-In . SVG Version: 6.00 Build 0)  -->
<svg version="1.1" id="Layer_1" xmlns="http://www.w3.org/2000/svg" xmlns:xlink="http://www.w3.org/1999/xlink" x="0px" y="0px"
	 viewBox="0 0 3180.79 1114.35" style="enable-background:new 0 0 3180.79 1114.35;" xml:space="preserve">
<style type="text/css">
	.st0{fill:#FFFFFF;stroke:#FFFFFF;stroke-width:20.775;stroke-miterlimit:10;}
	.st1{fill:none;stroke:#FFFFFF;stroke-width:33.2226;stroke-miterlimit:10;}
	.st2{fill:none;stroke:#FFFFFF;stroke-width:20.775;stroke-miterlimit:10;}
	.st3{fill:none;stroke:#FFFFFF;stroke-width:22.1866;stroke-miterlimit:10;}
	.st4{fill:#FFFFFF;}
	.st5{fill:#FFFFFF;stroke:#FFFFFF;stroke-width:11.0742;stroke-miterlimit:10;}
</style>
<g>
	<path class="st0" d="M967.66,596.09c61.37-16.28,123.22-22.7,186.44-16.8c-2.24-64.3,3.7-128.42,23.78-189.83
		c113.12,29.52,226.82,95.06,276.56,205.25c49.39-110.47,163.53-175.54,276.45-205.38c19.31,61.64,27.58,125.29,23.08,189.99
		c63.82-5.91,125.79,0.44,187.38,16.87c-56.97,250.98-233.47,361.06-483.17,295.84C1200.76,951.07,1029.52,858.6,967.66,596.09z
		 M1501.08,874.77c18.78,21.54,51.67,20.66,78.08,22.39c67.36,1.39,137.73-11.58,194.23-49.96
		c63.08-39.19,219.65-234.16,73.29-255.45c-29.5-3.35-59.45-2.46-89.02-0.12c-4.08,0.1-4.42,3.41-4.93,6.62
		C1738.85,735.86,1624.1,830.07,1501.08,874.77z M1407.62,875.04c-124.59-46.88-237.82-138.45-252.03-278.76
		c-0.71-3.59-1.45-4.25-4.85-4.57c-29.24-2.65-58.86-3.16-88.08-0.03c-135.68,19.87-11.08,182.27,41.7,231.15
		c53.85,48.36,126.15,72,197.85,73.42C1337.4,895.34,1379.84,901.04,1407.62,875.04z M1472.44,818.08
		c31.67-75.37,75.08-150.47,146.54-194.69c35.99-22.77,76.41-35.08,118.03-42.56c3.68-0.78,4.14-1.26,4.33-4.45
		c0.75-15.14,2.6-30.32,1.04-45.4c2.21-97.19-42.99-137.1-130.58-80.64c-62.31,35.42-117.67,86.39-145.74,153.45
		c-3.17,6.76-3.29,12.71-1.22,19.73C1483.55,686.58,1482.01,753.54,1472.44,818.08z M1434.9,815.88c0.3-0.04,0.61-0.07,0.91-0.11
		c-9.11-65.09-10.39-132.39,9.04-195.82c1.41-4.75,1.29-8.65-0.92-13.27c-32.74-79.81-102.65-137.68-179.6-173.11
		c-73.29-34.42-98.95,28.83-98.22,91.76c-1,16.39-0.22,32.83,0.85,49.23c0.3,4.58,1.22,5.58,5.81,6.5
		c35.82,6.45,70.8,16.51,102.89,34.05C1353.56,657.33,1402.87,735.59,1434.9,815.88z M1183.06,637.8
		c3.24,56.43,46.28,106.03,86.3,143.02c27.27,22.18,131.61,103.32,142.42,33.97c-10.07-70.04-64.28-132.22-120-173.12
		C1265.58,623.12,1185.41,578.59,1183.06,637.8z M1496.31,812.07c0.19,0.04,0.39,0.08,0.58,0.12
		c8.63,85.13,153.88-34.07,176.32-65.51c41.69-42.26,100.21-174.39-14.85-128.58C1581.02,654.86,1515.75,727.88,1496.31,812.07z"/>
	<path class="st1" d="M1452.67,258.38c79.18,68.92,80.89,167.91,3.72,239.08C1377.37,428.67,1375.17,329.14,1452.67,258.38z"/>
	<path class="st2" d="M1501.08,874.77c123.03-44.69,237.77-138.93,251.64-276.53c0.5-3.12,0.87-6.59,4.94-6.61
		c29.56-2.34,59.51-3.23,89.01,0.12c146.39,21.29-10.22,216.24-73.28,255.45c-56.5,38.39-126.86,51.35-194.23,49.96
		C1552.71,895.47,1519.88,896.29,1501.08,874.77z"/>
	<path class="st2" d="M1407.62,875.04c-27.76,26.01-70.24,20.28-105.39,21.21c-71.71-1.43-144-25.06-197.85-73.42
		c-52.82-48.87-177.35-211.29-41.71-231.15c29.22-3.14,58.84-2.62,88.08,0.02c3.39,0.32,4.14,0.98,4.84,4.58
		C1169.79,736.62,1283.05,828.16,1407.62,875.04z"/>
	<path class="st2" d="M1472.44,818.08c9.57-64.54,11.12-131.5-7.6-194.56c-2.07-7.02-1.95-12.98,1.22-19.73
		c28.07-67.05,83.42-118.03,145.74-153.45c87.35-56.3,132.84-16.81,130.58,80.65c1.55,15.08-0.29,30.25-1.04,45.4
		c-0.19,3.19-0.65,3.67-4.33,4.45c-41.62,7.48-82.03,19.79-118.03,42.55C1547.52,667.62,1504.12,742.71,1472.44,818.08z"/>
	<path class="st2" d="M1434.9,815.88c-32.03-80.28-81.34-158.56-159.25-200.77c-32.09-17.54-67.07-27.61-102.89-34.05
		c-4.59-0.92-5.51-1.92-5.81-6.5c-1.08-16.4-1.85-32.84-0.86-49.23c-0.68-62.75,24.8-126.25,98.23-91.75
		c76.94,35.43,146.87,93.3,179.6,173.11c2.22,4.62,2.33,8.52,0.93,13.27c-19.44,63.43-18.15,130.73-9.04,195.82
		C1435.51,815.81,1435.2,815.85,1434.9,815.88z"/>
	<path class="st2" d="M1183.06,637.8c1.46-59.22,83.11-14.47,108.72,3.88c55.72,40.88,109.92,103.08,120,173.11
		c-10.79,69.37-115.18-11.83-142.42-33.97C1229.35,743.85,1186.29,694.2,1183.06,637.8z"/>
	<path class="st2" d="M1496.31,812.07c19.44-84.2,84.7-157.2,162.06-193.96c114.99-45.77,56.61,86.24,14.84,128.57
		c-22.31,31.33-167.71,150.67-176.32,65.51C1496.69,812.15,1496.5,812.11,1496.31,812.07z"/>
	<path class="st3" d="M1488.68,444.23"/>
</g>
<g>
	<g>
		<path class="st4" d="M1929.23,553.75c-0.07,51.98-8.02,103.83-23.95,153.32c-15.29,47.53-37.8,92.67-66.48,133.54
			c-28.49,40.61-63.04,76.95-102.14,107.48c-39.22,30.62-83,55.35-129.5,73.07c-11.61,4.42-23.4,8.43-35.33,11.91
			c-0.65,0.19-1.3,0.37-1.94,0.56c7.96-2.33,16.78-4.59,24.14-6.51c0.85-0.22,5.61-1.41,2.54-0.67c-2.88,0.69-5.76,1.37-8.65,2.01
			c-6.34,1.41-12.71,2.7-19.1,3.85c-25.9,4.66-52.17,7.25-78.48,7.8c-51.89,1.08-103.89-5.83-153.64-20.66
			c-48.13-14.35-94.01-36.04-135.68-64.07c-40.99-27.57-77.85-61.23-109.06-99.52c-31.54-38.7-57.25-82.11-75.96-128.39
			c-19.16-47.41-30.9-97.74-34.78-148.73c-3.98-52.28,0.16-105.19,12.46-156.17c11.78-48.82,31.01-95.78,56.81-138.86
			c25.51-42.6,57.39-81.35,94.24-114.64c36.8-33.24,78.51-60.98,123.43-81.99c22.51-10.53,45.8-19.39,69.65-26.36
			c2.93-0.86,0.51-0.08-0.05,0.01c-7.58,1.16-16.65,4.54-24.05,6.46c-1.14,0.3-3.92,0.96-1.22,0.33c3.3-0.78,6.6-1.56,9.91-2.28
			c6.35-1.39,12.72-2.66,19.12-3.8c12.87-2.28,25.82-4.05,38.83-5.31c52.05-5.04,104.87-2.01,155.97,9.13
			c49.38,10.77,97.04,29.14,140.9,54.24c42.93,24.57,82.15,55.52,116.06,91.53c34.12,36.23,62.82,77.53,84.8,122.17
			c22.37,45.44,37.72,94.27,45.38,144.34C1927.32,502.75,1929.19,528.24,1929.23,553.75c0-0.7,23.31-5.98,25.34-6.52
			c5.96-1.6,11.91-3.2,17.85-4.86c0.81-0.23,7.35-1.72,7.35-2.16c-0.07-52.88-8.3-105.61-24.78-155.88
			c-15.89-48.46-39.29-94.41-69.07-135.81c-29.61-41.16-65.48-77.78-106.01-108.25c-40.71-30.6-86.08-54.94-134.12-71.85
			c-49.69-17.48-102.09-26.93-154.74-28.1c-26.97-0.6-53.99,0.95-80.72,4.66c-36.59,5.08-72.23,14.87-107.75,24.76
			c-50.67,14.11-98.97,34.58-143.3,63.06c-42.67,27.42-81.13,61.35-113.68,100.25c-32.59,38.94-59.22,82.83-78.62,129.75
			c-19.96,48.28-32.19,99.65-36.24,151.73c-4.13,53.18,0.17,107.02,12.89,158.84c12.23,49.82,32.24,97.67,59.06,141.39
			c26.53,43.25,59.65,82.42,97.88,115.79c38.22,33.36,81.49,60.88,127.94,81.27c47.69,20.93,98.64,34.25,150.46,39.43
			c53.05,5.3,106.86,2.12,158.93-9.32c23.47-5.15,46.69-11.62,69.82-18.09c13.67-3.82,27.23-7.97,40.59-12.76
			c23.97-8.58,47.27-19.01,69.65-31.15c44.65-24.23,85.53-55.31,120.88-91.78c35.23-36.35,64.92-78.03,87.71-123.24
			c23.29-46.2,39.27-96.01,47.24-147.13c4-25.66,5.95-51.61,5.98-77.58c0,0.71-23.31,5.97-25.34,6.52
			c-5.96,1.6-11.91,3.2-17.85,4.86C1935.77,551.82,1929.23,553.31,1929.23,553.75z"/>
	</g>
</g>
<path class="st5" d="M75.88,539.14c0-150.44,107.46-256.93,259.86-256.93c152.4,0,258.89,104.54,258.89,256.93v238.37h-60.57V658.32
	c-34.2,85.98-114.3,131.88-208.09,131.88C190.18,790.2,75.88,693.5,75.88,539.14z M529.16,536.21
	c0-111.35-78.15-193.43-193.43-193.43c-115.27,0-193.43,82.08-193.43,193.43c0,111.37,78.16,193.43,193.43,193.43
	C451.01,729.63,529.16,647.58,529.16,536.21z"/>
<path class="st5" d="M732.06,200.18h65.45v693.61h-65.45V200.18z"/>
<path class="st5" d="M2111.25,200.18h65.45V627.1l186.18-169.38h91.83l-208.65,187.93l288.2,248.14h-92.81L2176.7,664.23v229.56
	h-65.45V200.18z"/>
<path class="st5" d="M2507.42,539.14c0-150.44,107.46-256.93,259.86-256.93c152.4,0,258.88,104.54,258.88,256.93v238.37h-60.56
	V658.32c-34.2,85.98-114.3,131.88-208.09,131.88C2621.73,790.2,2507.42,693.5,2507.42,539.14z M2960.7,536.21
	c0-111.35-78.15-193.43-193.43-193.43c-115.27,0-193.43,82.08-193.43,193.43c0,111.37,78.16,193.43,193.43,193.43
	C2882.56,729.63,2960.7,647.58,2960.7,536.21z"/>
</svg>
